<svg xmlns="http://www.w3.org/2000/svg" viewBox="0 0 64 64" width="64" height="64">
  <defs>
    <!-- Gradient for the cheetah -->
    <linearGradient id="cheetahGrad" x1="0%" y1="0%" x2="100%" y2="100%">
      <stop offset="0%" style="stop-color:#F59E0B;stop-opacity:1" />
      <stop offset="100%" style="stop-color:#D97706;stop-opacity:1" />
    </linearGradient>
    
    <!-- Gradient for the document -->
    <linearGradient id="docGrad" x1="0%" y1="0%" x2="100%" y2="100%">
      <stop offset="0%" style="stop-color:#FFFFFF;stop-opacity:1" />
      <stop offset="100%" style="stop-color:#F8FAFC;stop-opacity:1" />
    </linearGradient>
  </defs>
  
  <!-- Background circle -->
  <circle cx="32" cy="32" r="30" fill="#1F2937"/>
  
  <!-- Document -->
  <rect x="28" y="12" width="26" height="32" rx="3" ry="3" 
        fill="url(#docGrad)" 
        stroke="#E5E7EB" 
        stroke-width="0.5"/>
  
  <!-- Document lines -->
  <line x1="32" y1="18" x2="48" y2="18" stroke="#9CA3AF" stroke-width="1"/>
  <line x1="32" y1="22" x2="46" y2="22" stroke="#9CA3AF" stroke-width="1"/>
  <line x1="32" y1="26" x2="50" y2="26" stroke="#9CA3AF" stroke-width="1"/>
  
  <!-- Chart bars -->
  <rect x="32" y="30" width="3" height="6" fill="#3B82F6"/>
  <rect x="36" y="28" width="3" height="8" fill="#10B981"/>
  <rect x="40" y="26" width="3" height="10" fill="#F59E0B"/>
  <rect x="44" y="32" width="3" height="4" fill="#EF4444"/>
  
  <!-- Cheetah silhouette -->
  <g transform="translate(8, 25) scale(0.7)">
    <!-- Body -->
    <ellipse cx="12" cy="8" rx="10" ry="5" fill="url(#cheetahGrad)"/>
    <!-- Head -->
    <circle cx="24" cy="5" r="5" fill="url(#cheetahGrad)"/>
    <!-- Spots -->
    <circle cx="10" cy="6" r="1" fill="#B45309" opacity="0.7"/>
    <circle cx="16" cy="9" r="0.8" fill="#B45309" opacity="0.7"/>
    <circle cx="20" cy="4" r="1" fill="#B45309" opacity="0.7"/>
    <!-- Legs -->
    <rect x="8" y="12" width="1.5" height="4" fill="url(#cheetahGrad)"/>
    <rect x="12" y="12" width="1.5" height="4" fill="url(#cheetahGrad)"/>
    <rect x="16" y="12" width="1.5" height="4" fill="url(#cheetahGrad)"/>
    <rect x="20" y="12" width="1.5" height="4" fill="url(#cheetahGrad)"/>
    <!-- Tail -->
    <path d="M 4 10 Q 0 8 -1 12" stroke="url(#cheetahGrad)" stroke-width="2" fill="none"/>
    <!-- Speed lines -->
    <line x1="2" y1="3" x2="-1" y2="2" stroke="#F59E0B" stroke-width="1" opacity="0.6"/>
    <line x1="3" y1="6" x2="0" y2="5" stroke="#F59E0B" stroke-width="1" opacity="0.6"/>
    <line x1="2" y1="9" x2="-1" y2="8" stroke="#F59E0B" stroke-width="1" opacity="0.6"/>
  </g>
</svg>
